<svg viewBox="0 0 392 190" xmlns="http://www.w3.org/2000/svg">
<path d="M210.045 8.04519L297.169 91.1793L391.065 0.974121L300.859 94.8693L383.993 181.993L296.869 98.8593L202.974 189.065L293.179 95.1693L210.045 8.04519Z" fill="black"/>
<path d="M17.44 125C11.5734 125 7.25336 123.64 4.48002 120.92C1.76002 118.147 0.400024 113.827 0.400024 107.96V89.72C0.400024 83.7467 1.76002 79.4 4.48002 76.68C7.20002 73.96 11.4934 72.6267 17.36 72.68H27.04C32 72.68 35.7067 73.72 38.16 75.8C40.6134 77.8267 42 81.08 42.32 85.56C42.4267 86.36 42.2667 87 41.84 87.48C41.4134 87.9067 40.7734 88.12 39.92 88.12C38.48 88.12 37.6267 87.2933 37.36 85.64C37.1467 82.6 36.2667 80.52 34.72 79.4C33.1734 78.2267 30.6134 77.64 27.04 77.64H17.36C14.32 77.5867 11.92 77.96 10.16 78.76C8.45336 79.5067 7.22669 80.76 6.48002 82.52C5.73336 84.2267 5.36002 86.6267 5.36002 89.72V107.96C5.36002 111 5.73336 113.4 6.48002 115.16C7.28002 116.867 8.53336 118.12 10.24 118.92C12 119.667 14.4 120.04 17.44 120.04H27.04C29.76 120.04 31.8667 119.72 33.36 119.08C34.8534 118.44 35.92 117.373 36.56 115.88C37.2 114.387 37.52 112.28 37.52 109.56V104.92L29.52 104.84C27.8667 104.84 27.04 104.013 27.04 102.36C27.04 100.707 27.8667 99.88 29.52 99.88L40 99.96C41.6534 99.96 42.48 100.787 42.48 102.44V109.56C42.48 114.947 41.2534 118.867 38.8 121.32C36.3467 123.773 32.4267 125 27.04 125H17.44Z" fill="black"/>
<path d="M73.06 86.36C78.1267 86.36 81.86 87.56 84.26 89.96C86.66 92.36 87.86 96.0933 87.86 101.16V122.52C87.86 124.173 87.0334 125 85.38 125C83.7267 125 82.9 124.173 82.9 122.52V119.24C80.18 123.08 75.7267 125 69.54 125H65.06C60.7934 125 57.6467 124.013 55.62 122.04C53.6467 120.013 52.66 116.867 52.66 112.6C52.66 108.333 53.6734 105.213 55.7 103.24C57.7267 101.213 60.8467 100.2 65.06 100.2H82.9C82.7934 96.84 81.9934 94.52 80.5 93.24C79.06 91.96 76.58 91.32 73.06 91.32H68.42C65.22 91.32 62.8734 91.64 61.38 92.28C59.8867 92.8667 58.9267 93.9067 58.5 95.4C58.2334 96.2 57.9134 96.7867 57.54 97.16C57.1667 97.48 56.6067 97.64 55.86 97.64C55.06 97.64 54.42 97.4267 53.94 97C53.46 96.52 53.3 95.88 53.46 95.08C53.94 92.0933 55.4067 89.9067 57.86 88.52C60.3134 87.08 63.8334 86.36 68.42 86.36H73.06ZM82.9 111.96V105.16H65.06C62.18 105.16 60.2067 105.693 59.14 106.76C58.1267 107.773 57.62 109.72 57.62 112.6C57.62 115.48 58.1267 117.453 59.14 118.52C60.2067 119.533 62.18 120.04 65.06 120.04H69.54C73.4334 120.04 76.4467 119.453 78.58 118.28C80.7667 117.053 82.1267 115.213 82.66 112.76L82.9 111.96Z" fill="black"/>
<path d="M118.461 120.04C120.115 120.04 120.941 120.867 120.941 122.52C120.941 124.173 120.115 125 118.461 125C113.448 125 109.768 123.853 107.421 121.56C105.075 119.213 103.901 115.533 103.901 110.52V91.32H99.4213C97.7679 91.32 96.9413 90.4933 96.9413 88.84C96.9413 87.1867 97.7679 86.36 99.4213 86.36H103.901V78.6C103.901 76.9467 104.728 76.12 106.381 76.12C108.035 76.12 108.861 76.9467 108.861 78.6V86.36H118.621C120.275 86.36 121.101 87.1867 121.101 88.84C121.101 90.4933 120.275 91.32 118.621 91.32H108.861V110.52C108.861 112.973 109.155 114.893 109.741 116.28C110.328 117.613 111.315 118.573 112.701 119.16C114.088 119.747 116.008 120.04 118.461 120.04Z" fill="black"/>
<path d="M141.338 125C138.031 125 135.471 124.307 133.658 122.92C131.844 121.48 130.724 119.32 130.298 116.44C130.191 115.64 130.351 115.027 130.778 114.6C131.258 114.12 131.924 113.88 132.778 113.88C133.524 113.88 134.084 114.093 134.458 114.52C134.884 114.893 135.178 115.48 135.338 116.28C135.551 117.667 136.111 118.653 137.018 119.24C137.978 119.773 139.418 120.04 141.338 120.04H154.458C156.804 120.04 158.404 119.613 159.258 118.76C160.164 117.853 160.618 116.227 160.618 113.88C160.618 111.48 160.164 109.853 159.258 109C158.404 108.147 156.804 107.72 154.458 107.72H141.498C137.924 107.72 135.258 106.84 133.498 105.08C131.738 103.32 130.858 100.627 130.858 97C130.858 93.3733 131.711 90.7067 133.418 89C135.178 87.24 137.871 86.36 141.498 86.36H154.058C157.151 86.36 159.551 87.0267 161.258 88.36C162.964 89.64 164.004 91.6133 164.378 94.28C164.538 95.08 164.378 95.72 163.898 96.2C163.471 96.68 162.831 96.92 161.978 96.92C161.231 96.92 160.644 96.7333 160.218 96.36C159.844 95.9333 159.578 95.32 159.418 94.52C159.204 93.2933 158.671 92.4667 157.818 92.04C157.018 91.56 155.764 91.32 154.058 91.32H141.498C139.258 91.32 137.738 91.72 136.938 92.52C136.191 93.2667 135.818 94.76 135.818 97C135.818 99.1867 136.218 100.707 137.018 101.56C137.818 102.36 139.311 102.76 141.498 102.76H154.458C158.244 102.76 161.044 103.667 162.858 105.48C164.671 107.293 165.578 110.093 165.578 113.88C165.578 117.613 164.671 120.413 162.858 122.28C161.044 124.093 158.244 125 154.458 125H141.338Z" fill="black"/>
<path d="M199.995 86.36C205.062 86.36 208.795 87.56 211.195 89.96C213.595 92.3067 214.795 96.04 214.795 101.16V110.2C214.795 115.267 213.595 119 211.195 121.4C208.795 123.8 205.062 125 199.995 125H196.955C190.662 125 186.208 123.32 183.595 119.96V122.52C183.595 124.173 182.768 125 181.115 125C179.462 125 178.635 124.173 178.635 122.52V71.72C178.635 70.0667 179.462 69.24 181.115 69.24C182.768 69.24 183.595 70.0667 183.595 71.72V91.4C186.208 88.04 190.662 86.36 196.955 86.36H199.995ZM209.835 101.16C209.835 97.4267 209.115 94.8667 207.675 93.48C206.235 92.04 203.675 91.32 199.995 91.32H196.955C192.848 91.32 189.595 91.9067 187.195 93.08C184.848 94.2533 183.648 95.9867 183.595 98.28V113.08C183.648 115.373 184.848 117.107 187.195 118.28C189.595 119.453 192.848 120.04 196.955 120.04H199.995C203.728 120.04 206.288 119.32 207.675 117.88C209.115 116.44 209.835 113.88 209.835 110.2V101.16Z" fill="black"/>
<path d="M238.788 141C235.161 141 232.468 140.12 230.708 138.36C229.001 136.6 228.148 133.907 228.148 130.28C228.148 128.627 228.974 127.8 230.628 127.8C232.281 127.8 233.108 128.627 233.108 130.28C233.108 132.573 233.481 134.093 234.228 134.84C235.028 135.64 236.548 136.04 238.788 136.04H253.108C255.348 136.04 256.841 135.64 257.588 134.84C258.388 134.093 258.788 132.573 258.788 130.28V119.56C257.348 121.587 255.534 123 253.348 123.8C251.214 124.6 248.574 125 245.428 125H242.708C237.694 125 234.014 123.853 231.668 121.56C229.321 119.213 228.148 115.533 228.148 110.52V88.84C228.148 87.1867 228.974 86.36 230.628 86.36C232.281 86.36 233.108 87.1867 233.108 88.84V110.52C233.108 112.973 233.401 114.893 233.988 116.28C234.574 117.613 235.561 118.573 236.948 119.16C238.334 119.747 240.254 120.04 242.708 120.04H245.428C250.014 120.04 253.374 119.267 255.508 117.72C257.694 116.12 258.788 113.72 258.788 110.52V88.84C258.788 87.1867 259.614 86.36 261.268 86.36C262.921 86.36 263.748 87.1867 263.748 88.84V130.28C263.748 133.907 262.868 136.6 261.108 138.36C259.401 140.12 256.734 141 253.108 141H238.788Z" fill="black"/>
</svg>
