<svg width="260" height="260" viewBox="0 0 260 260" fill="none" xmlns="http://www.w3.org/2000/svg">
<circle cx="130" cy="130" r="129" stroke="white" stroke-width="2"/>
<path d="M118.58 217C100.207 217 86.7733 212.84 78.28 204.52C69.96 196.027 65.8 182.593 65.8 164.22V105.2C65.8 86.6533 69.96 73.22 78.28 64.9C86.6 56.58 99.9467 52.42 118.32 52.42H149.78C165.727 52.42 177.427 55.7133 184.88 62.3C192.333 68.8867 196.407 79.5467 197.1 94.28V95.06C197.1 98.3533 195.367 100 191.9 100C188.433 100 186.527 98.18 186.18 94.54C185.66 82.9267 182.627 74.8667 177.08 70.36C171.707 65.68 162.607 63.34 149.78 63.34H118.32C107.92 63.34 99.6867 64.7267 93.62 67.5C87.7267 70.1 83.3933 74.4333 80.62 80.5C78.02 86.5667 76.72 94.8 76.72 105.2V164.22C76.72 179.473 79.84 190.307 86.08 196.72C92.4933 202.96 103.327 206.08 118.58 206.08H149.78C159.14 206.08 166.42 204.953 171.62 202.7C176.993 200.447 180.807 196.72 183.06 191.52C185.313 186.147 186.44 178.78 186.44 169.42V151.74L155.24 151.48C151.6 151.48 149.78 149.66 149.78 146.02C149.78 142.38 151.6 140.56 155.24 140.56L191.9 140.82C195.54 140.82 197.36 142.64 197.36 146.28V169.42C197.36 186.233 193.633 198.367 186.18 205.82C178.727 213.273 166.593 217 149.78 217H118.58Z" fill="white"/>
<path d="M62.4887 28.2707L130.116 125.509L203 20L132.981 129.825L197.511 231.729L129.884 134.491L57 240L127.019 130.175L62.4887 28.2707Z" fill="white"/>
</svg>
