<svg viewBox="0 0 515 570" fill="none" xmlns="http://www.w3.org/2000/svg">
<ellipse cx="272.5" cy="418" rx="180.5" ry="152" fill="#C4C4C4"/>
<path d="M407 230C407 284.676 346.782 329 272.5 329C198.218 329 138 284.676 138 230C138 175.324 198.218 131 272.5 131C346.782 131 407 175.324 407 230Z" fill="#C4C4C4"/>
<path d="M407 230C407 284.676 346.782 329 272.5 329C198.218 329 138 284.676 138 230" stroke="white"/>
<path d="M363 75C363 116.421 322.258 150 272 150C221.742 150 181 116.421 181 75" stroke="white" stroke-width="0.5"/>
<path d="M363 75C363 116.421 322.258 150 272 150C221.742 150 181 116.421 181 75C181 33.5786 221.742 0 272 0C322.258 0 363 33.5786 363 75Z" fill="#C4C4C4"/>
<path d="M262 53.5C262 60.4036 256.851 66 250.5 66C244.149 66 239 60.4036 239 53.5C239 46.5964 244.149 41 250.5 41C256.851 41 262 46.5964 262 53.5Z" fill="black"/>
<path d="M256 53.5C256 54.8807 254.657 56 253 56C251.343 56 250 54.8807 250 53.5C250 52.1193 251.343 51 253 51C254.657 51 256 52.1193 256 53.5Z" fill="#C4C4C4"/>
<path d="M302 53.5C302 60.4036 296.851 66 290.5 66C284.149 66 279 60.4036 279 53.5C279 46.5964 284.149 41 290.5 41C296.851 41 302 46.5964 302 53.5Z" fill="black"/>
<path d="M290 53.5C290 54.8807 288.657 56 287 56C285.343 56 284 54.8807 284 53.5C284 52.1193 285.343 51 287 51C288.657 51 290 52.1193 290 53.5Z" fill="#C4C4C4"/>
<path d="M266.764 114.584L271.596 114.832L276.11 114.288L278.396 119.61L276.279 125.029L270.309 125.212L264.652 123.095L265.278 118.495L266.764 114.584Z" fill="black"/>
<path d="M243.52 109.029L247.306 112.041L251.295 114.224L250.058 119.883L245.183 123.059L240.221 119.736L236.851 114.723L240.036 111.346L243.52 109.029Z" fill="black"/>
<path d="M290.618 115.033L294.402 112.017L297.422 108.619L302.661 111.092L304.664 116.554L300.314 120.646L294.674 122.808L292.096 118.947L290.618 115.033Z" fill="black"/>
<path d="M301.618 107.033L305.402 104.017L308.422 100.619L313.661 103.092L315.664 108.554L311.314 112.646L305.674 114.808L303.096 110.947L301.618 107.033Z" fill="black"/>
<path d="M233.3 101.428L235.961 105.47L239.072 108.785L236.135 113.778L228.786 107.851L225.19 104.765L229.268 102.546L233.3 101.428Z" fill="black"/>
<path d="M312.834 99.0923L316.256 95.6717L318.877 91.9565L324.359 93.8269L320.034 102.219L317.736 106.363L314.741 102.816L312.834 99.0923Z" fill="black"/>
<path d="M253.403 114.587L258.242 114.644L262.731 113.921L265.225 119.149L263.324 124.648L257.366 125.067L251.63 123.175L252.074 118.554L253.403 114.587Z" fill="black"/>
<path d="M279.5 114.538L284.25 113.615L288.5 112L292 116.615L291.25 122.385L285.5 124L279.5 123.308L279 118.692L279.5 114.538Z" fill="black"/>
<path d="M157.485 113.959L266.786 67.3491L273.407 75.2569L278.379 90.7166L275.756 102.511L157.485 113.959Z" fill="#EB8921"/>
<path d="M252.574 73.6786L258.825 80.1342L263.151 93.0626L260.099 103.173" stroke="#FF9966" stroke-width="0.5"/>
<path d="M261 70.349L267.425 77.4881L272.056 91.6078L269.205 102.511" stroke="#FF9966" stroke-width="0.5"/>
<path d="M217 88.3491L222.595 92.2325L225.777 100.677L221.964 107.807" stroke="#FF9966" stroke-width="0.5"/>
<path d="M210 91.3491L215.388 94.4213L218.21 101.452L214.156 107.641" stroke="#FF9966" stroke-width="0.5"/>
<path d="M178 105.349L182.723 105.814L184.385 108.302L179.561 111.469" stroke="#FF9966" stroke-width="0.5"/>
<path d="M188.69 100.054L193.688 101.597L195.829 105.961L191.323 110.376" stroke="#FF9966" stroke-width="0.5"/>
<path d="M229.372 83.8856L235.168 88.5586L238.701 98.3797L235.122 106.424" stroke="#FF9966" stroke-width="0.5"/>
<path d="M203 94.349L208.271 96.9642L210.89 103.199L206.701 108.858" stroke="#FF9966" stroke-width="0.5"/>
<path d="M196.263 97.3796L201.382 99.3992L203.736 104.596L199.371 109.564" stroke="#FF9966" stroke-width="0.5"/>
<path d="M239.137 78.887L245.177 84.5148L249.135 96.0002L245.838 105.151" stroke="#FF9966" stroke-width="0.5"/>
<path d="M247 76.349L253.142 82.3774L257.278 94.5609L254.099 104.176" stroke="#FF9966" stroke-width="0.5"/>
<path d="M375.402 214.175C368.289 215.827 361.735 213.768 360.762 209.578C359.789 205.387 364.766 200.651 371.879 199" stroke="white"/>
<line x1="368.411" y1="207.192" x2="479.411" y2="126.192" stroke="black" stroke-width="2"/>
<line x1="479.5" y1="126" x2="479.5" y2="90" stroke="black"/>
<line x1="479.041" y1="126.502" x2="514.92" y2="129.459" stroke="black"/>
<line x1="478.779" y1="126.489" x2="511.059" y2="110.552" stroke="black"/>
<path d="M171.246 203.854C175.73 209.617 176.613 216.43 173.217 219.072C169.822 221.714 163.435 219.184 158.951 213.421" stroke="white"/>
<line x1="167.842" y1="213.13" x2="47.7359" y2="146.373" stroke="black" stroke-width="2"/>
<line x1="47.5239" y1="146.372" x2="14.8478" y2="161.481" stroke="black"/>
<line x1="48.1718" y1="146.578" x2="35.7982" y2="112.772" stroke="black"/>
</svg>
